<?xml version="1.0" standalone="no"?>
<!DOCTYPE svg PUBLIC "-//W3C//DTD SVG 20010904//EN"
 "http://www.w3.org/TR/2001/REC-SVG-20010904/DTD/svg10.dtd">
<svg version="1.0" xmlns="http://www.w3.org/2000/svg"
 width="513.000000pt" height="513.000000pt" viewBox="0 0 513.000000 513.000000"
 preserveAspectRatio="xMidYMid meet">
<metadata>
Created by potrace 1.14, written by Peter Selinger 2001-2017
</metadata>
<g transform="translate(0.000000,513.000000) scale(0.100000,-0.100000)"
fill="#000000" stroke="none">
<path d="M1900 4631 c-8 -5 -18 -7 -22 -5 -4 3 -8 0 -8 -5 0 -6 -3 -10 -7 -9
-13 4 -56 -23 -84 -52 -29 -28 -65 -90 -61 -104 2 -4 -1 -13 -6 -20 -5 -6 -8
-504 -7 -1126 2 -1237 -3 -1146 67 -1226 33 -37 104 -76 143 -78 11 -1 26 -5
33 -9 6 -5 12 -4 12 0 0 5 15 8 34 7 43 -2 132 38 158 71 11 14 26 31 34 39
14 14 38 66 36 77 0 3 3 22 8 42 5 26 4 37 -4 37 -7 0 -7 3 -1 8 6 4 10 147
10 392 l0 385 398 0 c218 1 397 -2 398 -5 0 -3 1 -189 1 -415 0 -316 4 -417
14 -442 7 -18 10 -33 7 -33 -3 0 0 -7 7 -15 7 -8 9 -15 5 -15 -4 0 18 -25 50
-55 32 -30 61 -53 63 -50 2 2 16 -2 31 -9 29 -15 148 -19 156 -6 3 5 14 7 25
5 11 -2 20 -1 20 3 0 4 17 18 38 31 38 24 82 71 86 94 2 6 8 26 15 42 8 20 13
89 13 204 0 190 -3 201 -63 215 -55 12 -60 -3 -64 -189 -5 -193 -5 -193 -27
-227 -31 -47 -96 -65 -175 -49 -13 3 -62 67 -65 84 -2 12 -4 224 -3 471 l0
448 -26 22 -26 22 -487 0 -488 -1 -18 -23 c-18 -21 -19 -51 -19 -478 0 -447
-1 -456 -22 -490 -35 -58 -100 -78 -166 -53 -37 14 -58 38 -71 80 -7 23 -10
381 -9 1125 2 1058 3 1093 21 1113 11 12 16 21 11 21 -12 0 37 45 64 60 51 26
118 -12 152 -88 19 -40 20 -67 19 -491 0 -467 2 -494 42 -504 33 -9 348 -6
348 3 0 5 -5 12 -11 16 -11 6 -8 66 4 94 6 13 -11 15 -120 15 l-128 0 -1 380
c-2 399 -5 495 -15 495 -4 0 -9 10 -13 23 -9 37 -70 100 -121 126 -51 26 -160
39 -185 22z"/>
<path d="M3225 4630 c-3 -5 -18 -11 -34 -15 -27 -6 -134 -95 -115 -95 5 0 3
-4 -5 -9 -32 -20 -38 -101 -39 -481 0 -206 -1 -392 -1 -412 l-1 -38 -132 1
c-193 2 -194 1 -222 -25 -25 -22 -25 -25 -12 -62 8 -21 15 -35 15 -30 1 5 7 4
14 -2 7 -6 91 -10 222 -10 198 0 211 1 227 21 10 11 19 23 19 26 1 3 2 213 4
466 2 505 1 497 64 563 17 17 36 33 41 33 20 3 25 4 36 12 7 4 25 -6 43 -22
17 -16 31 -26 31 -23 2 25 43 -91 46 -128 2 -25 4 -47 4 -50 3 -9 2 -125 0
-135 -1 -5 -2 -12 -1 -15 8 -22 4 -280 -4 -280 -7 0 -7 -3 0 -8 6 -4 10 -29
10 -57 0 -27 -4 -53 -10 -57 -7 -5 -7 -8 0 -8 7 0 10 -160 10 -459 0 -347 2
-464 12 -477 15 -20 97 -32 108 -14 9 14 13 1580 4 1580 -4 0 -9 16 -12 34 -6
39 -61 117 -92 133 -11 6 -36 19 -55 29 -37 20 -165 30 -175 14z"/>
<path d="M953 1624 c7 -7 -20 -23 -103 -65 -68 -34 -72 -38 -58 -63 19 -34 19
-37 21 -326 l2 -275 85 0 85 0 0 350 c1 193 -1 358 -3 368 -2 9 -11 17 -20 17
-8 0 -12 -3 -9 -6z"/>
<path d="M2165 1409 c-30 -28 -59 -49 -67 -49 -6 0 -24 -10 -41 -22 -18 -13
-33 -22 -35 -20 -1 1 -10 -1 -18 -6 -15 -8 -15 -11 0 -34 9 -13 13 -28 9 -31
-3 -4 -2 -7 3 -7 6 0 9 -115 9 -290 l0 -290 85 0 85 0 0 369 c0 358 -4 404
-30 380z"/>
<path d="M1159 1388 c-1 -19 -1 -460 0 -478 1 -14 19 -18 109 -20 38 -1 61 4
65 14 2 6 3 79 2 161 -2 164 -17 222 -71 272 -37 34 -104 67 -105 51z"/>
<path d="M1393 1381 c24 -28 107 -171 99 -171 -4 0 1 -5 11 -11 9 -6 15 -14
12 -20 -4 -5 -1 -9 4 -9 6 0 11 -7 11 -15 0 -8 4 -15 9 -15 5 0 11 -8 15 -17
7 -21 39 -77 55 -96 6 -8 8 -17 4 -20 -3 -4 -2 -7 4 -7 5 0 20 -21 34 -47 13
-27 24 -49 25 -51 0 -1 9 0 18 4 9 3 13 10 10 15 -3 5 0 9 7 9 7 0 10 3 6 6
-3 4 -1 12 6 20 45 50 59 78 53 108 -3 14 -9 31 -15 38 -22 26 -60 88 -54 88
3 0 -1 8 -9 18 -22 26 -108 171 -108 183 0 6 -40 9 -105 8 -97 -1 -105 -3 -92
-18z"/>
<path d="M1767 1376 c27 -22 83 -121 83 -145 0 -5 4 -12 9 -15 9 -6 131 157
131 175 0 5 -55 9 -126 9 l-126 0 29 -24z"/>
<path d="M2335 1390 c-3 -5 -2 -10 4 -10 14 0 53 -78 46 -90 -3 -6 -1 -10 6
-10 6 0 9 -8 6 -20 -3 -11 -1 -22 3 -25 8 -5 6 -172 -3 -205 -9 -38 -51 -120
-61 -120 -6 0 -5 -4 3 -9 12 -8 35 -7 76 3 58 15 145 90 160 137 4 13 13 27
19 31 7 5 7 8 -3 8 -9 0 -10 4 -3 13 14 17 8 115 -10 157 -17 39 -79 110 -97
110 -6 0 -11 4 -11 9 0 9 -76 31 -109 31 -11 0 -23 -4 -26 -10z"/>
<path d="M2857 1379 c-21 -11 -42 -17 -47 -14 -6 3 -10 1 -10 -4 0 -6 -9 -11
-21 -11 -44 0 -61 -18 -58 -65 2 -25 0 -47 -3 -51 -4 -3 -3 -16 1 -28 4 -11 4
-39 1 -61 -3 -22 -2 -59 1 -82 3 -24 3 -43 -1 -43 -5 0 1 -92 8 -117 1 -4 40
-8 87 -9 72 -1 85 1 86 15 4 69 3 484 -1 486 -3 2 -22 -6 -43 -16z"/>
<path d="M3057 1392 c-2 -4 -4 -117 -3 -252 l1 -245 88 -1 87 -1 1 76 c0 82
-1 212 -4 249 0 12 -5 22 -9 22 -4 0 -8 7 -8 16 0 20 -40 78 -72 103 -31 25
-76 43 -81 33z"/>
<path d="M3499 1389 c-82 -21 -158 -108 -171 -194 -2 -11 -7 -23 -13 -27 -6
-5 -6 -8 1 -8 6 0 10 -15 9 -36 -3 -74 66 -177 142 -209 39 -16 106 -28 101
-18 -43 90 -56 123 -57 143 -7 90 -7 167 0 198 15 73 19 85 39 119 11 19 20
36 20 38 0 6 -41 3 -71 -6z"/>
<path d="M3715 1354 c14 -24 22 -44 18 -44 -4 0 -2 -4 4 -8 7 -5 14 -34 15
-70 2 -34 6 -62 10 -62 3 0 4 -8 2 -17 -2 -10 -6 -43 -8 -73 -2 -30 -5 -56 -6
-57 -2 -2 -3 -6 -4 -10 -1 -5 -5 -14 -9 -20 -5 -7 -6 -13 -3 -13 3 0 -5 -20
-19 -44 l-24 -44 37 4 c42 4 144 53 136 66 -3 4 -1 8 5 8 14 0 58 78 66 115
10 53 13 95 6 95 -4 0 -8 11 -9 25 -3 43 -39 102 -84 138 -46 37 -74 49 -126
53 l-33 2 26 -44z"/>
<path d="M4250 1389 c0 -5 5 -7 10 -4 6 3 10 1 10 -4 0 -6 3 -10 8 -9 12 4
122 -71 128 -87 4 -8 10 -12 15 -9 5 3 9 2 9 -3 1 -4 11 -21 24 -36 l23 -28
-3 88 c-1 48 -2 91 -3 96 -2 12 -221 9 -221 -4z"/>
<path d="M4023 1298 c9 -64 12 -75 24 -89 6 -8 11 -18 12 -22 0 -16 58 -74 92
-93 19 -10 37 -23 40 -27 3 -4 10 -7 15 -6 5 1 29 -7 54 -19 25 -12 51 -22 58
-22 6 0 12 -4 12 -8 0 -5 6 -9 13 -10 21 -2 40 -8 81 -25 21 -9 45 -17 52 -17
20 0 15 55 -8 104 -10 22 -18 43 -18 48 0 10 -59 69 -85 85 -41 26 -115 57
-127 55 -5 -1 -8 3 -8 8 0 6 -3 9 -7 8 -9 -3 -105 33 -113 41 -3 4 -14 8 -25
9 -11 2 -24 8 -29 13 -6 5 -16 9 -24 9 -11 0 -13 -10 -9 -42z"/>
<path d="M4019 1072 c-3 -25 3 -167 7 -172 3 -3 55 -5 115 -5 89 0 106 2 92
12 -10 7 -24 17 -30 23 -7 6 -13 8 -13 5 0 -9 -49 28 -100 75 -25 23 -44 46
-43 50 1 4 -4 11 -12 14 -8 3 -15 2 -16 -2z"/>
<path d="M1460 889 c0 -6 -4 -8 -9 -5 -5 3 -20 -6 -35 -20 -21 -22 -25 -33
-20 -62 3 -19 12 -41 20 -49 30 -31 100 -32 155 -2 45 24 49 33 18 46 -16 7
-33 23 -38 35 -10 27 -24 39 -63 56 -19 8 -28 8 -28 1z"/>
</g>
</svg>
